<?xml version="1.0" encoding="utf-8"?>
<svg version="1.1" id="Layer_1" xmlns="http://www.w3.org/2000/svg" xmlns:xlink="http://www.w3.org/1999/xlink" x="0px" y="0px" width="400px" height="400px"
	 viewBox="0 0 400 400" enable-background="new 0 0 400 400" xml:space="preserve">
	<g id="connect-viz">
		<g id="connect-viz__circle">
			<path fill="#9D9E9E" d="M200.001,0C90.204,0,0.888,89.34,0.888,199.113c0,50.576,18.971,96.849,50.172,131.997l32.227-32.181
				c-23.015-26.864-36.94-61.75-36.94-99.816c0-84.725,68.928-153.654,153.654-153.654c84.72,0,153.651,68.93,153.651,153.654
				c0,35.578-12.155,68.401-32.565,94.484l32.299,32.346c28.549-34.477,45.725-78.691,45.725-126.83
				C399.112,89.34,309.796,0,200.001,0z"/>
		</g>
		<g id="connect-viz__center">
			<path fill="#9D9E9E" d="M233.741,128.278c0,18.631-15.105,33.738-33.742,33.738c-18.637,0-33.742-15.106-33.742-33.738
				c0-18.637,15.105-33.742,33.742-33.742C218.636,94.536,233.741,109.641,233.741,128.278z"/>
			<polygon fill="#9D9E9E" points="307.068,182.172 307.068,224.042 253.231,224.042 253.231,324.531 216.748,324.531 
				216.748,253.95 180.857,253.95 180.857,324.531 143.773,324.531 143.773,224.042 92.93,224.042 92.93,182.172 			"/>
		</g>
	</g>
</svg>
